<?xml version="1.0" encoding="utf-8"?>
<!-- Generator: Adobe Illustrator 16.0.0, SVG Export Plug-In . SVG Version: 6.00 Build 0)  -->
<!DOCTYPE svg PUBLIC "-//W3C//DTD SVG 1.1//EN" "http://www.w3.org/Graphics/SVG/1.1/DTD/svg11.dtd">
<svg version="1.1" id="Capa_1" xmlns="http://www.w3.org/2000/svg" xmlns:xlink="http://www.w3.org/1999/xlink" x="0px" y="0px"
	 width="512.002px" height="512.002px" viewBox="0 0 512.002 512.002" enable-background="new 0 0 512.002 512.002"
	 xml:space="preserve">
<g>
	<path fill="#313131" d="M256.001-0.302C114.445-0.302-0.301,114.442-0.301,256.001c0,141.557,114.744,256.303,256.301,256.303
		c141.558,0,256.302-114.746,256.302-256.303C512.303,114.442,397.559-0.302,256.001-0.302L256.001-0.302z M256.001,472.257
		c-119.438,0-216.254-96.818-216.254-216.256S136.563,39.746,256.001,39.746c119.438,0,216.255,96.817,216.255,216.255
		S375.439,472.257,256.001,472.257L256.001,472.257z"/>
	<path fill="#313131" d="M316.82,216.765h-44.584v-32.538c0-9.98,10.325-12.294,15.146-12.294h28.798v-43.909l-33.008-0.176
		c-45.035,0-55.314,32.743-55.314,53.735v35.183h-32.68v45.244h32.68v122.139h44.378v-122.14h37.701L316.82,216.765z"/>
</g>
</svg>
