<?xml version="1.0" encoding="utf-8"?>
<!-- Generator: Adobe Illustrator 16.0.0, SVG Export Plug-In . SVG Version: 6.00 Build 0)  -->
<!DOCTYPE svg PUBLIC "-//W3C//DTD SVG 1.1//EN" "http://www.w3.org/Graphics/SVG/1.1/DTD/svg11.dtd">
<svg version="1.1" id="Capa_1" xmlns="http://www.w3.org/2000/svg" xmlns:xlink="http://www.w3.org/1999/xlink" x="0px" y="0px"
	 width="512.002px" height="512.002px" viewBox="0 0 512.002 512.002" enable-background="new 0 0 512.002 512.002"
	 xml:space="preserve">
<g>
	<path fill="#313131" d="M256.001-0.302C114.445-0.302-0.301,114.442-0.301,256.001c0,141.557,114.744,256.303,256.301,256.303
		c141.558,0,256.302-114.746,256.302-256.303C512.303,114.442,397.559-0.302,256.001-0.302L256.001-0.302z M256.001,472.257
		c-119.438,0-216.254-96.818-216.254-216.256S136.563,39.746,256.001,39.746c119.438,0,216.255,96.817,216.255,216.255
		S375.439,472.257,256.001,472.257L256.001,472.257z"/>
	<g>
		<path fill="#313131" d="M304.446,129.773h-96.891c-42.964,0-77.787,34.825-77.787,77.794v96.886
			c0,42.952,34.823,77.773,77.787,77.773h96.891c42.963,0,77.781-34.821,77.781-77.773v-96.886
			C382.227,164.598,347.407,129.773,304.446,129.773z M357.996,295.149c0,34.724-28.148,62.854-62.848,62.854h-78.298
			c-34.717,0-62.857-28.131-62.857-62.854v-78.297c0-34.699,28.141-62.853,62.857-62.853h78.297
			c34.698,0,62.848,28.152,62.848,62.853L357.996,295.149L357.996,295.149z"/>
		<path fill="#313131" d="M259.384,189.948c-36.735,0-66.505,29.762-66.505,66.495c0,36.711,29.771,66.494,66.505,66.494
			c36.722,0,66.494-29.784,66.494-66.494C325.878,219.709,296.106,189.948,259.384,189.948z M259.384,296.447
			c-22.113,0-40.017-17.92-40.017-40.004c0-22.11,17.903-40.012,40.017-40.012c22.089,0,40.004,17.9,40.004,40.012
			C299.388,278.526,281.473,296.447,259.384,296.447z"/>
		<path fill="#313131" d="M338.188,188.909c0,9.34-7.586,16.907-16.916,16.907c-9.337,0-16.9-7.568-16.9-16.907
			c0-9.333,7.563-16.92,16.9-16.92C330.602,171.99,338.188,179.575,338.188,188.909z"/>
	</g>
</g>
</svg>
