<?xml version="1.0" encoding="utf-8"?>
<!-- Generator: Adobe Illustrator 16.0.0, SVG Export Plug-In . SVG Version: 6.00 Build 0)  -->
<!DOCTYPE svg PUBLIC "-//W3C//DTD SVG 1.1//EN" "http://www.w3.org/Graphics/SVG/1.1/DTD/svg11.dtd">
<svg version="1.1" id="Capa_1" xmlns="http://www.w3.org/2000/svg" xmlns:xlink="http://www.w3.org/1999/xlink" x="0px" y="0px"
	 width="512.002px" height="512.002px" viewBox="0 0 512.002 512.002" enable-background="new 0 0 512.002 512.002"
	 xml:space="preserve">
<g>
	<path fill="#313131" d="M256.001-0.302C114.445-0.302-0.301,114.442-0.301,256.001c0,141.557,114.743,256.303,256.301,256.303
		s256.302-114.746,256.302-256.303C512.303,114.442,397.559-0.302,256.001-0.302L256.001-0.302z M256.001,472.257
		c-119.438,0-216.254-96.818-216.254-216.256c0-119.438,96.815-216.255,216.254-216.255c119.438,0,216.255,96.816,216.255,216.255
		C472.256,375.439,375.439,472.257,256.001,472.257L256.001,472.257z"/>
	<g id="UG8QpP_1_">
		<g>
			<g>
				<path fill="#313131" d="M235.503,309.731c13.018,14.923,34.66,20.53,53.623,14.732c3.926-1.188,7.809-2.595,11.574-4.218
					c7.335-3.169,14.226-7.321,20.144-12.73c16.904-15.419,26.1-34.836,30.37-56.9c5.549-28.684,0.513-55.432-17.606-78.433
					c-11.01-13.975-26.552-23.146-43.155-28.938c-22.518-7.868-47.812-8.802-70.575-1.471c-6.535,2.109-13.081,4.979-19.049,8.359
					c-21.318,12.119-37.729,31.637-44.424,55.342c-1.775,6.325-2.853,12.921-3.478,19.45c-1.521,15.812,1.972,31.477,9.156,45.56
					c1.132,2.231,2.562,4.274,3.632,6.532c2.535,5.352,6.384,10.666,11.09,14.279c2.186,1.689,4.879,3.163,7.741,2.973
					c3.969-0.274,4.962-4.083,6.055-7.368c1.197-3.632,1.604-7.456,2.403-11.175c0.708-3.392,0.807-5.426-1.303-8.435
					c-16.712-23.732-10.972-62.157,9.615-81.402c18.667-17.411,39.842-22.509,63.555-19.148c21.131,3.01,39.98,16.865,48.24,36.775
					c3.38,8.162,4.473,19.228,4.587,27.904c0.18,12.498-1.796,23.688-6.651,35.371c-4.127,9.987-10.354,19.646-19.073,26.241
					c-12.824,9.68-39.77,13.881-45.197-6.271c-1.34-4.953-1.499-11.4-0.497-16.427c2.536-12.655,7.387-24.672,10.303-37.201
					c1.543-6.688,2.576-13.411,0.745-20.226c-2.146-8.045-7.146-13.242-15.497-14.369c-8.886-1.226-17.223,1.545-22.382,8.456
					c-10.769,14.421-12.14,30.912-6.852,47.889c1.121,3.654,1.53,6.793,0.596,10.586c-5.085,20.604-9.511,41.374-14.806,61.91
					c-3.607,13.961-4.82,28.3-4.135,42.669c0.182,3.988,0.27,8.013,1.19,11.912c0.603,2.618,1.566,6.355,4.134,7.73
					c3.553,1.881,6.566-2.653,8.237-5.112c6.583-9.728,11.74-20.567,15.626-31.639c2.531-7.187,4.503-14.55,6.422-21.93
					C230.54,328.419,234.283,315.033,235.503,309.731z"/>
			</g>
		</g>
	</g>
</g>
</svg>
