<?xml version="1.0" encoding="utf-8"?>
<!-- Generator: Adobe Illustrator 16.0.0, SVG Export Plug-In . SVG Version: 6.00 Build 0)  -->
<!DOCTYPE svg PUBLIC "-//W3C//DTD SVG 1.1//EN" "http://www.w3.org/Graphics/SVG/1.1/DTD/svg11.dtd">
<svg version="1.1" id="Capa_1" xmlns="http://www.w3.org/2000/svg" xmlns:xlink="http://www.w3.org/1999/xlink" x="0px" y="0px"
	 width="512.002px" height="512.002px" viewBox="0 0 512.002 512.002" enable-background="new 0 0 512.002 512.002"
	 xml:space="preserve">
<g>
	<path fill="#313131" d="M256.001-0.302C114.445-0.302-0.301,114.442-0.301,256.001c0,141.557,114.743,256.303,256.301,256.303
		s256.302-114.746,256.302-256.303C512.303,114.442,397.559-0.302,256.001-0.302L256.001-0.302z M256.001,472.257
		c-119.438,0-216.254-96.818-216.254-216.256c0-119.438,96.815-216.255,216.254-216.255c119.438,0,216.255,96.816,216.255,216.255
		C472.256,375.439,375.439,472.257,256.001,472.257L256.001,472.257z"/>
	<g>
		<path fill="#313131" d="M367.577,186.794c-8.212,3.641-17.034,6.102-26.295,7.209c9.452-5.666,16.711-14.638,20.13-25.329
			c-8.847,5.247-18.644,9.057-29.072,11.11c-8.351-8.897-20.249-14.457-33.417-14.457c-25.284,0-45.782,20.497-45.782,45.78
			c0,3.588,0.405,7.083,1.186,10.433c-38.049-1.909-71.783-20.135-94.363-47.834c-3.941,6.761-6.199,14.626-6.199,23.016
			c0,15.884,8.083,29.897,20.367,38.107c-7.505-0.238-14.564-2.297-20.736-5.726c-0.004,0.19-0.004,0.383-0.004,0.576
			c0,22.182,15.781,40.685,36.725,44.891c-3.841,1.046-7.886,1.607-12.062,1.607c-2.95,0-5.818-0.287-8.614-0.823
			c5.827,18.188,22.734,31.426,42.768,31.794c-15.669,12.28-35.409,19.599-56.859,19.599c-3.695,0-7.339-0.216-10.921-0.642
			c20.26,12.991,44.325,20.571,70.179,20.571c84.208,0,130.258-69.762,130.258-130.261c0-1.985-0.045-3.959-0.133-5.923
			C353.678,204.037,361.44,195.975,367.577,186.794z"/>
	</g>
</g>
</svg>
